<svg id="Group_6637" data-name="Group 6637" xmlns="http://www.w3.org/2000/svg" width="47" height="47" viewBox="0 0 47 47">
  <path id="Path_13718" data-name="Path 13718" d="M0,35.906V10.754c.058-.326.112-.652.174-.977A11.407,11.407,0,0,1,7.422.843,23.286,23.286,0,0,1,10.754,0H35.906a25.435,25.435,0,0,1,2.615.566,11.639,11.639,0,0,1,8.133,11.175q.032,11.594,0,23.189a11.243,11.243,0,0,1-2.16,6.781,11.566,11.566,0,0,1-9.842,4.949q-11.253,0-22.505-.007a13.363,13.363,0,0,1-2.356-.176A11.342,11.342,0,0,1,.828,39.2,23.429,23.429,0,0,1,0,35.906m23.3,6.837v.021c3.8,0,7.594.027,11.39-.019a9.266,9.266,0,0,0,2.813-.42,7.656,7.656,0,0,0,5.26-7.561q.008-11.436-.005-22.871a8.564,8.564,0,0,0-.172-1.852A7.676,7.676,0,0,0,34.913,3.9C27.2,3.878,19.484,3.9,11.769,3.894a7.333,7.333,0,0,0-3.311.7A7.649,7.649,0,0,0,3.9,11.918q-.014,11.413,0,22.825a11.862,11.862,0,0,0,.108,1.541,7.7,7.7,0,0,0,7.122,6.445c4.054.06,8.109.014,12.164.014"/>
  <path id="Path_13722" data-name="Path 13722" d="M139.491,127.765a11.663,11.663,0,1,1-11.723,11.579,11.686,11.686,0,0,1,11.723-11.579m-.056,19.429a7.766,7.766,0,1,0-7.771-7.75,7.754,7.754,0,0,0,7.771,7.75" transform="translate(-116.1 -116.099)"/>
  <path id="Path_13723" data-name="Path 13723" d="M365.026,91a2.908,2.908,0,0,1,.007-5.815A2.908,2.908,0,1,1,365.026,91" transform="translate(-329.061 -77.409)"/>
  <rect id="Rectangle_2343" data-name="Rectangle 2343" width="47" height="47" fill="none"/>
</svg>
