<svg xmlns="http://www.w3.org/2000/svg" xmlns:xlink="http://www.w3.org/1999/xlink" width="153.076" height="32.302" viewBox="0 0 153.076 32.302">
  <defs>
    <clipPath id="clip-path">
      <rect id="Rectangle_2319" data-name="Rectangle 2319" width="153.076" height="32.302" fill="none"/>
    </clipPath>
  </defs>
  <g id="Group_6600" data-name="Group 6600" clip-path="url(#clip-path)">
    <path id="Path_13703" data-name="Path 13703" d="M143.484,9.756l2.055-6.1h.181l2.055,6.1Zm6.392,6.279h3.184L147.436.225h-3.591L138.2,16.035h3.184l1.287-3.817h5.917ZM130.655.225h-2.981v15.81h2.981Zm-14.929,0V10.863h-.181L108.432.225h-3.049v15.81H108.3V5.465h.181l7.114,10.57h3.049V.225ZM88.241,9.756l2.055-6.1h.181l2.055,6.1Zm6.392,6.279h3.184L92.193.225H88.6l-5.647,15.81H86.14l1.287-3.817h5.917ZM75.412.225H71.776L66.988,11.066h-.181L62,.225H58.338v15.81h2.913V5.533h.181l3.952,8.7h3l3.93-8.7H72.5v10.5h2.913ZM49.823,11.7c0-3.3-2.891-4.359-4.382-4.81l-.79-.249c-1.333-.407-2.711-.858-2.711-2.213,0-1.152.971-1.9,2.372-1.9a2.235,2.235,0,0,1,2.439,2.123h2.936C49.6,1.964,47.542,0,44.29,0c-3.049,0-5.353,1.74-5.353,4.562,0,2.62,2.033,3.817,3.975,4.4l.9.27c1.445.429,3,.948,3,2.552,0,1.378-1.129,1.942-2.485,1.942a2.634,2.634,0,0,1-2.959-2.53H38.44c.113,3.027,2.123,5.059,5.895,5.059,2.913,0,5.488-1.468,5.488-4.562M22.134,9.756l2.055-6.1h.181l2.055,6.1Zm6.392,6.279H31.71L26.086.225H22.5l-5.647,15.81h3.185l1.287-3.817h5.917ZM11.925.225H0V2.89H4.472V16.035H7.453V2.89h4.472Z" transform="translate(0 0.001)" fill="#fff"/>
    <path id="Path_13704" data-name="Path 13704" d="M150.877,72.07a1.14,1.14,0,0,1-1.17.742,1.422,1.422,0,0,1-1.388-1.569,1.462,1.462,0,0,1,1.388-1.611,1.066,1.066,0,0,1,1.094.769l.013.042h1.1l-.01-.069a2.033,2.033,0,0,0-2.194-1.706,2.4,2.4,0,0,0-2.443,2.575,2.357,2.357,0,0,0,2.443,2.533,2.093,2.093,0,0,0,2.27-1.679l.011-.069h-1.1Z" transform="translate(-88.945 -41.474)" fill="#fff"/>
    <path id="Path_13705" data-name="Path 13705" d="M166.164,68.668a2.554,2.554,0,1,0,2.54,2.554,2.492,2.492,0,0,0-2.54-2.554m1.486,2.554a1.489,1.489,0,1,1-1.486-1.59,1.5,1.5,0,0,1,1.486,1.59" transform="translate(-98.826 -41.474)" fill="#fff"/>
    <path id="Path_13706" data-name="Path 13706" d="M184.4,72.144l-1.45-3.266-.015-.035h-1.221v4.97h1.013V70.684l1.17,2.575h1l1.163-2.574v3.129h1.013v-4.97h-1.214Z" transform="translate(-109.754 -41.58)" fill="#fff"/>
    <path id="Path_13707" data-name="Path 13707" d="M202.048,71.741h2.031v-.895h-2.031V69.759H204.4v-.916h-3.37v4.97h3.439V72.9h-2.426Z" transform="translate(-121.422 -41.58)" fill="#fff"/>
    <path id="Path_13708" data-name="Path 13708" d="M223.992,68.843h-1.757v4.97h1.757a2.486,2.486,0,0,0,0-4.97m1.368,2.457c0,.588-.182,1.576-1.4,1.576h-.689v-3.1h.689c.9,0,1.4.54,1.4,1.521" transform="translate(-134.226 -41.58)" fill="#fff"/>
    <path id="Path_13709" data-name="Path 13709" d="M240.085,68.668a2.554,2.554,0,1,0,2.54,2.554,2.492,2.492,0,0,0-2.54-2.554m1.486,2.554a1.487,1.487,0,0,1-1.479,1.59,1.594,1.594,0,1,1,1.479-1.59" transform="translate(-143.474 -41.474)" fill="#fff"/>
    <path id="Path_13710" data-name="Path 13710" d="M258.972,72.273l-.86-3.04-.012-.043h-1.061l-.885,3.083-.7-3.43h-1.009l1.076,4.923.01.047h1.1l.926-3.274.939,3.274h1.1l1.063-4.9.016-.072h-1Z" transform="translate(-153.682 -41.58)" fill="#fff"/>
    <path id="Path_13711" data-name="Path 13711" d="M278.147,72.054l-2.13-3.185L276,68.843h-1.026v4.97h1.013v-3.19l2.13,3.164.017.026h1.027v-4.97h-1.013Z" transform="translate(-166.079 -41.58)" fill="#fff"/>
    <path id="Path_13712" data-name="Path 13712" d="M299.313,73.813h1.034V71.886h2.038V70.97h-2.038V69.8h2.35v-.957h-3.383Z" transform="translate(-180.78 -41.58)" fill="#fff"/>
    <path id="Path_13713" data-name="Path 13713" d="M314.644,68.668a2.554,2.554,0,1,0,2.54,2.554,2.492,2.492,0,0,0-2.54-2.554m1.486,2.554a1.489,1.489,0,1,1-1.486-1.59,1.5,1.5,0,0,1,1.486,1.59" transform="translate(-188.506 -41.474)" fill="#fff"/>
    <path id="Path_13714" data-name="Path 13714" d="M333.8,70.33a1.462,1.462,0,0,0-1.626-1.487H330.2v4.97h1.013V71.921h.695l1.012,1.892h1.106l-1.131-2.088a1.452,1.452,0,0,0,.911-1.4m-1.034.049a.631.631,0,0,1-.7.647h-.862V69.738h.862a.616.616,0,0,1,.7.641" transform="translate(-199.434 -41.58)" fill="#fff"/>
    <path id="Path_13715" data-name="Path 13715" d="M354.914,68.843h-1.185l-1.775,4.97h1.1l.4-1.171h1.731l.381,1.131.014.04h1.1l-1.754-4.93Zm-.021,2.925h-1.151l.575-1.708Z" transform="translate(-212.574 -41.58)" fill="#fff"/>
    <rect id="Rectangle_2318" data-name="Rectangle 2318" width="1.034" height="4.97" transform="translate(145.925 27.263)" fill="#fff"/>
    <path id="Path_13716" data-name="Path 13716" d="M379.577,71.725a1.5,1.5,0,0,0-.714-2.882h-1.979v4.97H377.9V71.921h.7l1.011,1.892h1.106Zm-.123-1.346a.63.63,0,0,1-.7.647H377.9V69.738h.862a.615.615,0,0,1,.7.641" transform="translate(-227.632 -41.58)" fill="#fff"/>
  </g>
</svg>
